<svg xmlns="http://www.w3.org/2000/svg" xmlns:xlink="http://www.w3.org/1999/xlink" contentStyleType="text/css" height="893px" preserveAspectRatio="none" style="width:618px;height:893px;background:#FFFFFF;" version="1.1" viewBox="0 0 618 893" width="618px" zoomAndPan="magnify"><defs/><g><ellipse cx="247.6" cy="16" fill="#222222" rx="10" ry="10" style="stroke:#222222;stroke-width:1;"/><g id="Abordando"><rect fill="#F1F1F1" height="50" rx="12.5" ry="12.5" style="stroke:#181818;stroke-width:0.5;" width="96.5762" x="199.31" y="103"/><line style="stroke:#181818;stroke-width:0.5;" x1="199.31" x2="295.8862" y1="129.2969" y2="129.2969"/><text fill="#000000" font-family="sans-serif" font-size="14" lengthAdjust="spacing" textLength="76.5762" x="209.31" y="120.9951">Abordando</text></g><g id="EnTransito"><rect fill="#F1F1F1" height="50.2656" rx="12.5" ry="12.5" style="stroke:#181818;stroke-width:0.5;" width="205.5664" x="144.82" y="230"/><line style="stroke:#181818;stroke-width:0.5;" x1="144.82" x2="350.3864" y1="256.2969" y2="256.2969"/><text fill="#000000" font-family="sans-serif" font-size="14" lengthAdjust="spacing" textLength="74.7168" x="210.2448" y="247.9951">EnTransito</text><text fill="#000000" font-family="sans-serif" font-size="12" lengthAdjust="spacing" textLength="185.5664" x="149.82" y="272.4355">Pasajero en tr&#225;nsito en la ruta.</text></g><g id="PagoTarifa"><rect fill="#F1F1F1" height="50.2656" rx="12.5" ry="12.5" style="stroke:#181818;stroke-width:0.5;" width="187.1973" x="7" y="357.27"/><line style="stroke:#181818;stroke-width:0.5;" x1="7" x2="194.1973" y1="383.5669" y2="383.5669"/><text fill="#000000" font-family="sans-serif" font-size="14" lengthAdjust="spacing" textLength="74.7578" x="63.2197" y="375.2651">PagoTarifa</text><text fill="#000000" font-family="sans-serif" font-size="12" lengthAdjust="spacing" textLength="167.1973" x="12" y="399.7055">Pago completado con &#233;xito.</text></g><g id="Continuando"><rect fill="#F1F1F1" height="50" rx="12.5" ry="12.5" style="stroke:#181818;stroke-width:0.5;" width="109.2432" x="192.98" y="484.53"/><line style="stroke:#181818;stroke-width:0.5;" x1="192.98" x2="302.2232" y1="510.8269" y2="510.8269"/><text fill="#000000" font-family="sans-serif" font-size="14" lengthAdjust="spacing" textLength="89.2432" x="202.98" y="502.5251">Continuando</text></g><g id="Parada"><rect fill="#F1F1F1" height="50.2656" rx="12.5" ry="12.5" style="stroke:#181818;stroke-width:0.5;" width="130.3438" x="182.43" y="611.53"/><line style="stroke:#181818;stroke-width:0.5;" x1="182.43" x2="312.7738" y1="637.8269" y2="637.8269"/><text fill="#000000" font-family="sans-serif" font-size="14" lengthAdjust="spacing" textLength="48.8223" x="223.1907" y="629.5251">Parada</text><text fill="#000000" font-family="sans-serif" font-size="12" lengthAdjust="spacing" textLength="110.3438" x="187.43" y="653.9655">Parada alcanzada.</text></g><g id="Bajando"><rect fill="#F1F1F1" height="50" rx="12.5" ry="12.5" style="stroke:#181818;stroke-width:0.5;" width="76.9775" x="209.11" y="738.8"/><line style="stroke:#181818;stroke-width:0.5;" x1="209.11" x2="286.0875" y1="765.0969" y2="765.0969"/><text fill="#000000" font-family="sans-serif" font-size="14" lengthAdjust="spacing" textLength="56.9775" x="219.11" y="756.7951">Bajando</text></g><ellipse cx="247.6" cy="876.8" fill="none" rx="11" ry="11" style="stroke:#222222;stroke-width:1;"/><ellipse cx="247.6" cy="876.8" fill="#222222" rx="6" ry="6" style="stroke:#222222;stroke-width:1;"/><g id="Incidencia"><rect fill="#F1F1F1" height="50.2656" rx="12.5" ry="12.5" style="stroke:#181818;stroke-width:0.5;" width="332.4805" x="229.36" y="357.27"/><line style="stroke:#181818;stroke-width:0.5;" x1="229.36" x2="561.8405" y1="383.5669" y2="383.5669"/><text fill="#000000" font-family="sans-serif" font-size="14" lengthAdjust="spacing" textLength="71.1279" x="360.0363" y="375.2651">Incidencia</text><text fill="#000000" font-family="sans-serif" font-size="12" lengthAdjust="spacing" textLength="312.4805" x="234.36" y="399.7055">Incidencia registrada, el trayecto puede demorarse.</text></g><!--link *start* to Abordando--><g id="link_*start*_Abordando"><path d="M247.6,26.38 C247.6,43.11 247.6,72.6 247.6,96.63 " fill="none" id="*start*-to-Abordando" style="stroke:#181818;stroke-width:1;"/><polygon fill="#181818" points="247.6,102.63,251.6,93.63,247.6,97.63,243.6,93.63,247.6,102.63" style="stroke:#181818;stroke-width:1;"/><text fill="#000000" font-family="sans-serif" font-size="13" lengthAdjust="spacing" textLength="200.1924" x="248.6" y="69.0669">El pasajero aborda el veh&#237;culo.</text></g><!--link Abordando to EnTransito--><g id="link_Abordando_EnTransito"><path d="M247.6,153.43 C247.6,175.48 247.6,201.74 247.6,223.77 " fill="none" id="Abordando-to-EnTransito" style="stroke:#181818;stroke-width:1;"/><polygon fill="#181818" points="247.6,229.77,251.6,220.77,247.6,224.77,243.6,220.77,247.6,229.77" style="stroke:#181818;stroke-width:1;"/><text fill="#000000" font-family="sans-serif" font-size="13" lengthAdjust="spacing" textLength="318.0747" x="248.6" y="196.0669">El pasajero toma asiento y comienza el trayecto.</text></g><!--link EnTransito to PagoTarifa--><g id="link_EnTransito_PagoTarifa"><path d="M144.5,275.31 C126.84,283.25 110.65,294.46 99.6,310.27 C90.26,323.63 89.7302,336.2298 92.4602,351.0098 " fill="none" id="EnTransito-to-PagoTarifa" style="stroke:#181818;stroke-width:1;"/><polygon fill="#181818" points="93.55,356.91,95.8487,347.3332,92.6418,351.9932,87.9818,348.7863,93.55,356.91" style="stroke:#181818;stroke-width:1;"/><text fill="#000000" font-family="sans-serif" font-size="13" lengthAdjust="spacing" textLength="250.4976" x="100.6" y="323.3369">El pasajero realiza el pago de la tarifa.</text></g><!--link PagoTarifa to Continuando--><g id="link_PagoTarifa_Continuando"><path d="M112.28,407.71 C120.35,422.61 132.21,441.29 146.6,454.53 C159.99,466.85 171.3854,474.5043 187.3454,482.7943 " fill="none" id="PagoTarifa-to-Continuando" style="stroke:#181818;stroke-width:1;"/><polygon fill="#181818" points="192.67,485.56,186.527,477.8617,188.2329,483.2552,182.8394,484.9612,192.67,485.56" style="stroke:#181818;stroke-width:1;"/><text fill="#000000" font-family="sans-serif" font-size="13" lengthAdjust="spacing" textLength="187.3384" x="147.6" y="450.5969">El pasajero contin&#250;a el viaje.</text></g><!--link Continuando to Parada--><g id="link_Continuando_Parada"><path d="M247.6,534.96 C247.6,557.01 247.6,583.28 247.6,605.3 " fill="none" id="Continuando-to-Parada" style="stroke:#181818;stroke-width:1;"/><polygon fill="#181818" points="247.6,611.3,251.6,602.3,247.6,606.3,243.6,602.3,247.6,611.3" style="stroke:#181818;stroke-width:1;"/><text fill="#000000" font-family="sans-serif" font-size="13" lengthAdjust="spacing" textLength="269.9277" x="248.6" y="577.5969">El veh&#237;culo llega a una parada espec&#237;fica.</text></g><!--link Parada to Bajando--><g id="link_Parada_Bajando"><path d="M247.6,662.09 C247.6,684.14 247.6,710.41 247.6,732.44 " fill="none" id="Parada-to-Bajando" style="stroke:#181818;stroke-width:1;"/><polygon fill="#181818" points="247.6,738.44,251.6,729.44,247.6,733.44,243.6,729.44,247.6,738.44" style="stroke:#181818;stroke-width:1;"/><text fill="#000000" font-family="sans-serif" font-size="13" lengthAdjust="spacing" textLength="183.0728" x="248.6" y="704.8669">Pasajero se dispone a bajar.</text></g><!--link Bajando to *end*--><g id="link_Bajando_*end*"><path d="M247.6,789.16 C247.6,813.03 247.6,842.26 247.6,859.51 " fill="none" id="Bajando-to-*end*" style="stroke:#181818;stroke-width:1;"/><polygon fill="#181818" points="247.6,865.51,251.6,856.51,247.6,860.51,243.6,856.51,247.6,865.51" style="stroke:#181818;stroke-width:1;"/><text fill="#000000" font-family="sans-serif" font-size="13" lengthAdjust="spacing" textLength="271.0386" x="248.6" y="831.8669">Pasajero desciende y termina el trayecto.</text></g><!--link EnTransito to Incidencia--><g id="link_EnTransito_Incidencia"><path d="M312.2,280.72 C327.6,288.58 343.15,298.4 355.6,310.27 C369.24,323.27 377.0445,336.4855 383.7545,351.4455 " fill="none" id="EnTransito-to-Incidencia" style="stroke:#181818;stroke-width:1;"/><polygon fill="#181818" points="386.21,356.92,386.1765,347.0712,384.1638,352.3579,378.8771,350.3452,386.21,356.92" style="stroke:#181818;stroke-width:1;"/><text fill="#000000" font-family="sans-serif" font-size="13" lengthAdjust="spacing" textLength="241.5156" x="368.6" y="323.3369">Ocurre una incidencia en el trayecto.</text></g><!--link Incidencia to Continuando--><g id="link_Incidencia_Continuando"><path d="M379.91,407.7 C369.63,422.41 355.23,440.9 339.6,454.53 C326.76,465.74 316.4744,472.8743 301.8844,481.2443 " fill="none" id="Incidencia-to-Continuando" style="stroke:#181818;stroke-width:1;"/><polygon fill="#181818" points="296.68,484.23,306.477,483.2211,301.017,481.7419,302.4962,476.2819,296.68,484.23" style="stroke:#181818;stroke-width:1;"/><text fill="#000000" font-family="sans-serif" font-size="13" lengthAdjust="spacing" textLength="122.2939" x="355.6" y="450.5969">Se retoma el viaje.</text></g><!--SRC=[RL8nJWCn4EppYgqHoGCea02be29IqaKK6tiJ7Fdiqzg7E7v3IP4FqDx7MFikYU-WiUprpEnurjkRLvZFx-5XvrcZqnxkO6cXne17OW-Owq0MtkcjEwd6-iLiTaKdxj9j65qmSKgElaB0OCZ9LGlALxBzp6gHiIKLHMp4Nfsfv0JIVVLrELW4RY9AxmAVcg_mu3V8Pe-JvaneJT-i5WneIY8nGnUp4IqTahlQKaITjWwwxm-Jx9N8rE_9ksXSyqzKAjzqFtrQHeh2Bk6zNKOzMBqa2jRIGPA2ng7ePGI5cbHtsXkLtGwiOODMeGIfCVlBfIJ-YCV1roN7GA1DgBqZaT_9FGlbZ4kShNo00gyfA1cIXDL29AwCcunhcl-pKqQJBCdUYsgOAJ_3NEiolf74Y58Sc0ucnFIQsv80TKFYHrFb6JcaL0lItvciIPJorxlCuHS0]--></g></svg>