<svg xmlns="http://www.w3.org/2000/svg" xmlns:xlink="http://www.w3.org/1999/xlink" contentStyleType="text/css" height="749px" preserveAspectRatio="none" style="width:823px;height:749px;background:#FFFFFF;" version="1.1" viewBox="0 0 823 749" width="823px" zoomAndPan="magnify"><defs/><g><!--class SistemaDeTransportePublico--><g id="elem_SistemaDeTransportePublico"><rect codeLine="1" fill="#F1F1F1" height="48" id="SistemaDeTransportePublico" rx="2.5" ry="2.5" style="stroke:#181818;stroke-width:0.5;" width="234.3916" x="247.93" y="7"/><ellipse cx="262.93" cy="23" fill="#ADD1B2" rx="11" ry="11" style="stroke:#181818;stroke-width:1;"/><path d="M265.8988,28.6406 Q265.3206,28.9375 264.68,29.0781 Q264.0394,29.2344 263.3363,29.2344 Q260.8363,29.2344 259.5081,27.5938 Q258.1956,25.9375 258.1956,22.8125 Q258.1956,19.6875 259.5081,18.0313 Q260.8363,16.375 263.3363,16.375 Q264.0394,16.375 264.68,16.5313 Q265.3363,16.6875 265.8988,16.9844 L265.8988,19.7031 Q265.2738,19.125 264.68,18.8594 Q264.0863,18.5781 263.4613,18.5781 Q262.1175,18.5781 261.43,19.6563 Q260.7425,20.7188 260.7425,22.8125 Q260.7425,24.9063 261.43,25.9844 Q262.1175,27.0469 263.4613,27.0469 Q264.0863,27.0469 264.68,26.7813 Q265.2738,26.5 265.8988,25.9219 L265.8988,28.6406 Z " fill="#000000"/><text fill="#000000" font-family="sans-serif" font-size="14" lengthAdjust="spacing" textLength="202.3916" x="276.93" y="27.8467">SistemaDeTransportePublico</text><line style="stroke:#181818;stroke-width:0.5;" x1="248.93" x2="481.3216" y1="39" y2="39"/><line style="stroke:#181818;stroke-width:0.5;" x1="248.93" x2="481.3216" y1="47" y2="47"/></g><!--class SistemaDePago--><g id="elem_SistemaDePago"><rect codeLine="4" fill="#F1F1F1" height="48" id="SistemaDePago" rx="2.5" ry="2.5" style="stroke:#181818;stroke-width:0.5;" width="142.2568" x="7" y="132"/><ellipse cx="22" cy="148" fill="#ADD1B2" rx="11" ry="11" style="stroke:#181818;stroke-width:1;"/><path d="M24.9688,153.6406 Q24.3906,153.9375 23.75,154.0781 Q23.1094,154.2344 22.4063,154.2344 Q19.9063,154.2344 18.5781,152.5938 Q17.2656,150.9375 17.2656,147.8125 Q17.2656,144.6875 18.5781,143.0313 Q19.9063,141.375 22.4063,141.375 Q23.1094,141.375 23.75,141.5313 Q24.4063,141.6875 24.9688,141.9844 L24.9688,144.7031 Q24.3438,144.125 23.75,143.8594 Q23.1563,143.5781 22.5313,143.5781 Q21.1875,143.5781 20.5,144.6563 Q19.8125,145.7188 19.8125,147.8125 Q19.8125,149.9063 20.5,150.9844 Q21.1875,152.0469 22.5313,152.0469 Q23.1563,152.0469 23.75,151.7813 Q24.3438,151.5 24.9688,150.9219 L24.9688,153.6406 Z " fill="#000000"/><text fill="#000000" font-family="sans-serif" font-size="14" lengthAdjust="spacing" textLength="110.2568" x="36" y="152.8467">SistemaDePago</text><line style="stroke:#181818;stroke-width:0.5;" x1="8" x2="148.2568" y1="164" y2="164"/><line style="stroke:#181818;stroke-width:0.5;" x1="8" x2="148.2568" y1="172" y2="172"/></g><!--class TipoDeAbono--><g id="elem_TipoDeAbono"><rect codeLine="7" fill="#F1F1F1" height="48" id="TipoDeAbono" rx="2.5" ry="2.5" style="stroke:#181818;stroke-width:0.5;" width="125.7549" x="37.25" y="366"/><ellipse cx="52.25" cy="382" fill="#ADD1B2" rx="11" ry="11" style="stroke:#181818;stroke-width:1;"/><path d="M55.2188,387.6406 Q54.6406,387.9375 54,388.0781 Q53.3594,388.2344 52.6563,388.2344 Q50.1563,388.2344 48.8281,386.5938 Q47.5156,384.9375 47.5156,381.8125 Q47.5156,378.6875 48.8281,377.0313 Q50.1563,375.375 52.6563,375.375 Q53.3594,375.375 54,375.5313 Q54.6563,375.6875 55.2188,375.9844 L55.2188,378.7031 Q54.5938,378.125 54,377.8594 Q53.4063,377.5781 52.7813,377.5781 Q51.4375,377.5781 50.75,378.6563 Q50.0625,379.7188 50.0625,381.8125 Q50.0625,383.9063 50.75,384.9844 Q51.4375,386.0469 52.7813,386.0469 Q53.4063,386.0469 54,385.7813 Q54.5938,385.5 55.2188,384.9219 L55.2188,387.6406 Z " fill="#000000"/><text fill="#000000" font-family="sans-serif" font-size="14" lengthAdjust="spacing" textLength="93.7549" x="66.25" y="386.8467">TipoDeAbono</text><line style="stroke:#181818;stroke-width:0.5;" x1="38.25" x2="162.0049" y1="398" y2="398"/><line style="stroke:#181818;stroke-width:0.5;" x1="38.25" x2="162.0049" y1="406" y2="406"/></g><!--class MetodoDePago--><g id="elem_MetodoDePago"><rect codeLine="10" fill="#F1F1F1" height="48" id="MetodoDePago" rx="2.5" ry="2.5" style="stroke:#181818;stroke-width:0.5;" width="138.0664" x="69.1" y="694"/><ellipse cx="84.1" cy="710" fill="#ADD1B2" rx="11" ry="11" style="stroke:#181818;stroke-width:1;"/><path d="M87.0688,715.6406 Q86.4906,715.9375 85.85,716.0781 Q85.2094,716.2344 84.5063,716.2344 Q82.0063,716.2344 80.6781,714.5938 Q79.3656,712.9375 79.3656,709.8125 Q79.3656,706.6875 80.6781,705.0313 Q82.0063,703.375 84.5063,703.375 Q85.2094,703.375 85.85,703.5313 Q86.5063,703.6875 87.0688,703.9844 L87.0688,706.7031 Q86.4438,706.125 85.85,705.8594 Q85.2563,705.5781 84.6313,705.5781 Q83.2875,705.5781 82.6,706.6563 Q81.9125,707.7188 81.9125,709.8125 Q81.9125,711.9063 82.6,712.9844 Q83.2875,714.0469 84.6313,714.0469 Q85.2563,714.0469 85.85,713.7813 Q86.4438,713.5 87.0688,712.9219 L87.0688,715.6406 Z " fill="#000000"/><text fill="#000000" font-family="sans-serif" font-size="14" lengthAdjust="spacing" textLength="106.0664" x="98.1" y="714.8467">MetodoDePago</text><line style="stroke:#181818;stroke-width:0.5;" x1="70.1" x2="206.1664" y1="726" y2="726"/><line style="stroke:#181818;stroke-width:0.5;" x1="70.1" x2="206.1664" y1="734" y2="734"/></g><!--class Tarifa--><g id="elem_Tarifa"><rect codeLine="13" fill="#F1F1F1" height="48" id="Tarifa" rx="2.5" ry="2.5" style="stroke:#181818;stroke-width:0.5;" width="72.2842" x="165.99" y="569"/><ellipse cx="180.99" cy="585" fill="#ADD1B2" rx="11" ry="11" style="stroke:#181818;stroke-width:1;"/><path d="M183.9588,590.6406 Q183.3806,590.9375 182.74,591.0781 Q182.0994,591.2344 181.3963,591.2344 Q178.8963,591.2344 177.5681,589.5938 Q176.2556,587.9375 176.2556,584.8125 Q176.2556,581.6875 177.5681,580.0313 Q178.8963,578.375 181.3963,578.375 Q182.0994,578.375 182.74,578.5313 Q183.3963,578.6875 183.9588,578.9844 L183.9588,581.7031 Q183.3338,581.125 182.74,580.8594 Q182.1463,580.5781 181.5213,580.5781 Q180.1775,580.5781 179.49,581.6563 Q178.8025,582.7188 178.8025,584.8125 Q178.8025,586.9063 179.49,587.9844 Q180.1775,589.0469 181.5213,589.0469 Q182.1463,589.0469 182.74,588.7813 Q183.3338,588.5 183.9588,587.9219 L183.9588,590.6406 Z " fill="#000000"/><text fill="#000000" font-family="sans-serif" font-size="14" lengthAdjust="spacing" textLength="40.2842" x="194.99" y="589.8467">Tarifa</text><line style="stroke:#181818;stroke-width:0.5;" x1="166.99" x2="237.2742" y1="601" y2="601"/><line style="stroke:#181818;stroke-width:0.5;" x1="166.99" x2="237.2742" y1="609" y2="609"/></g><!--class Flota--><g id="elem_Flota"><rect codeLine="16" fill="#F1F1F1" height="48" id="Flota" rx="2.5" ry="2.5" style="stroke:#181818;stroke-width:0.5;" width="66.5762" x="331.84" y="132"/><ellipse cx="346.84" cy="148" fill="#ADD1B2" rx="11" ry="11" style="stroke:#181818;stroke-width:1;"/><path d="M349.8088,153.6406 Q349.2306,153.9375 348.59,154.0781 Q347.9494,154.2344 347.2463,154.2344 Q344.7463,154.2344 343.4181,152.5938 Q342.1056,150.9375 342.1056,147.8125 Q342.1056,144.6875 343.4181,143.0313 Q344.7463,141.375 347.2463,141.375 Q347.9494,141.375 348.59,141.5313 Q349.2463,141.6875 349.8088,141.9844 L349.8088,144.7031 Q349.1838,144.125 348.59,143.8594 Q347.9963,143.5781 347.3713,143.5781 Q346.0275,143.5781 345.34,144.6563 Q344.6525,145.7188 344.6525,147.8125 Q344.6525,149.9063 345.34,150.9844 Q346.0275,152.0469 347.3713,152.0469 Q347.9963,152.0469 348.59,151.7813 Q349.1838,151.5 349.8088,150.9219 L349.8088,153.6406 Z " fill="#000000"/><text fill="#000000" font-family="sans-serif" font-size="14" lengthAdjust="spacing" textLength="34.5762" x="360.84" y="152.8467">Flota</text><line style="stroke:#181818;stroke-width:0.5;" x1="332.84" x2="397.4162" y1="164" y2="164"/><line style="stroke:#181818;stroke-width:0.5;" x1="332.84" x2="397.4162" y1="172" y2="172"/></g><!--class Conductor--><g id="elem_Conductor"><rect codeLine="19" fill="#F1F1F1" height="48" id="Conductor" rx="2.5" ry="2.5" style="stroke:#181818;stroke-width:0.5;" width="104.4814" x="270.89" y="288"/><ellipse cx="285.89" cy="304" fill="#ADD1B2" rx="11" ry="11" style="stroke:#181818;stroke-width:1;"/><path d="M288.8588,309.6406 Q288.2806,309.9375 287.64,310.0781 Q286.9994,310.2344 286.2963,310.2344 Q283.7963,310.2344 282.4681,308.5938 Q281.1556,306.9375 281.1556,303.8125 Q281.1556,300.6875 282.4681,299.0313 Q283.7963,297.375 286.2963,297.375 Q286.9994,297.375 287.64,297.5313 Q288.2963,297.6875 288.8588,297.9844 L288.8588,300.7031 Q288.2338,300.125 287.64,299.8594 Q287.0463,299.5781 286.4213,299.5781 Q285.0775,299.5781 284.39,300.6563 Q283.7025,301.7188 283.7025,303.8125 Q283.7025,305.9063 284.39,306.9844 Q285.0775,308.0469 286.4213,308.0469 Q287.0463,308.0469 287.64,307.7813 Q288.2338,307.5 288.8588,306.9219 L288.8588,309.6406 Z " fill="#000000"/><text fill="#000000" font-family="sans-serif" font-size="14" lengthAdjust="spacing" textLength="72.4814" x="299.89" y="308.8467">Conductor</text><line style="stroke:#181818;stroke-width:0.5;" x1="271.89" x2="374.3714" y1="320" y2="320"/><line style="stroke:#181818;stroke-width:0.5;" x1="271.89" x2="374.3714" y1="328" y2="328"/></g><!--class Vehiculo--><g id="elem_Vehiculo"><rect codeLine="22" fill="#F1F1F1" height="48" id="Vehiculo" rx="2.5" ry="2.5" style="stroke:#181818;stroke-width:0.5;" width="91.9785" x="410.14" y="288"/><ellipse cx="425.14" cy="304" fill="#ADD1B2" rx="11" ry="11" style="stroke:#181818;stroke-width:1;"/><path d="M428.1088,309.6406 Q427.5306,309.9375 426.89,310.0781 Q426.2494,310.2344 425.5463,310.2344 Q423.0463,310.2344 421.7181,308.5938 Q420.4056,306.9375 420.4056,303.8125 Q420.4056,300.6875 421.7181,299.0313 Q423.0463,297.375 425.5463,297.375 Q426.2494,297.375 426.89,297.5313 Q427.5463,297.6875 428.1088,297.9844 L428.1088,300.7031 Q427.4838,300.125 426.89,299.8594 Q426.2963,299.5781 425.6713,299.5781 Q424.3275,299.5781 423.64,300.6563 Q422.9525,301.7188 422.9525,303.8125 Q422.9525,305.9063 423.64,306.9844 Q424.3275,308.0469 425.6713,308.0469 Q426.2963,308.0469 426.89,307.7813 Q427.4838,307.5 428.1088,306.9219 L428.1088,309.6406 Z " fill="#000000"/><text fill="#000000" font-family="sans-serif" font-size="14" lengthAdjust="spacing" textLength="59.9785" x="439.14" y="308.8467">Vehiculo</text><line style="stroke:#181818;stroke-width:0.5;" x1="411.14" x2="501.1185" y1="320" y2="320"/><line style="stroke:#181818;stroke-width:0.5;" x1="411.14" x2="501.1185" y1="328" y2="328"/></g><!--class Pasajero--><g id="elem_Pasajero"><rect codeLine="25" fill="#F1F1F1" height="48" id="Pasajero" rx="2.5" ry="2.5" style="stroke:#181818;stroke-width:0.5;" width="91.7188" x="295.27" y="444"/><ellipse cx="310.27" cy="460" fill="#ADD1B2" rx="11" ry="11" style="stroke:#181818;stroke-width:1;"/><path d="M313.2388,465.6406 Q312.6606,465.9375 312.02,466.0781 Q311.3794,466.2344 310.6763,466.2344 Q308.1763,466.2344 306.8481,464.5938 Q305.5356,462.9375 305.5356,459.8125 Q305.5356,456.6875 306.8481,455.0313 Q308.1763,453.375 310.6763,453.375 Q311.3794,453.375 312.02,453.5313 Q312.6763,453.6875 313.2388,453.9844 L313.2388,456.7031 Q312.6138,456.125 312.02,455.8594 Q311.4263,455.5781 310.8013,455.5781 Q309.4575,455.5781 308.77,456.6563 Q308.0825,457.7188 308.0825,459.8125 Q308.0825,461.9063 308.77,462.9844 Q309.4575,464.0469 310.8013,464.0469 Q311.4263,464.0469 312.02,463.7813 Q312.6138,463.5 313.2388,462.9219 L313.2388,465.6406 Z " fill="#000000"/><text fill="#000000" font-family="sans-serif" font-size="14" lengthAdjust="spacing" textLength="59.7188" x="324.27" y="464.8467">Pasajero</text><line style="stroke:#181818;stroke-width:0.5;" x1="296.27" x2="385.9888" y1="476" y2="476"/><line style="stroke:#181818;stroke-width:0.5;" x1="296.27" x2="385.9888" y1="484" y2="484"/></g><!--class Ruta--><g id="elem_Ruta"><rect codeLine="28" fill="#F1F1F1" height="48" id="Ruta" rx="2.5" ry="2.5" style="stroke:#181818;stroke-width:0.5;" width="64.6689" x="505.79" y="444"/><ellipse cx="520.79" cy="460" fill="#ADD1B2" rx="11" ry="11" style="stroke:#181818;stroke-width:1;"/><path d="M523.7588,465.6406 Q523.1806,465.9375 522.54,466.0781 Q521.8994,466.2344 521.1963,466.2344 Q518.6963,466.2344 517.3681,464.5938 Q516.0556,462.9375 516.0556,459.8125 Q516.0556,456.6875 517.3681,455.0313 Q518.6963,453.375 521.1963,453.375 Q521.8994,453.375 522.54,453.5313 Q523.1963,453.6875 523.7588,453.9844 L523.7588,456.7031 Q523.1338,456.125 522.54,455.8594 Q521.9463,455.5781 521.3213,455.5781 Q519.9775,455.5781 519.29,456.6563 Q518.6025,457.7188 518.6025,459.8125 Q518.6025,461.9063 519.29,462.9844 Q519.9775,464.0469 521.3213,464.0469 Q521.9463,464.0469 522.54,463.7813 Q523.1338,463.5 523.7588,462.9219 L523.7588,465.6406 Z " fill="#000000"/><text fill="#000000" font-family="sans-serif" font-size="14" lengthAdjust="spacing" textLength="32.6689" x="534.79" y="464.8467">Ruta</text><line style="stroke:#181818;stroke-width:0.5;" x1="506.79" x2="569.4589" y1="476" y2="476"/><line style="stroke:#181818;stroke-width:0.5;" x1="506.79" x2="569.4589" y1="484" y2="484"/></g><!--class Parada--><g id="elem_Parada"><rect codeLine="31" fill="#F1F1F1" height="48" id="Parada" rx="2.5" ry="2.5" style="stroke:#181818;stroke-width:0.5;" width="80.8223" x="453.72" y="569"/><ellipse cx="468.72" cy="585" fill="#ADD1B2" rx="11" ry="11" style="stroke:#181818;stroke-width:1;"/><path d="M471.6888,590.6406 Q471.1106,590.9375 470.47,591.0781 Q469.8294,591.2344 469.1263,591.2344 Q466.6263,591.2344 465.2981,589.5938 Q463.9856,587.9375 463.9856,584.8125 Q463.9856,581.6875 465.2981,580.0313 Q466.6263,578.375 469.1263,578.375 Q469.8294,578.375 470.47,578.5313 Q471.1263,578.6875 471.6888,578.9844 L471.6888,581.7031 Q471.0638,581.125 470.47,580.8594 Q469.8763,580.5781 469.2513,580.5781 Q467.9075,580.5781 467.22,581.6563 Q466.5325,582.7188 466.5325,584.8125 Q466.5325,586.9063 467.22,587.9844 Q467.9075,589.0469 469.2513,589.0469 Q469.8763,589.0469 470.47,588.7813 Q471.0638,588.5 471.6888,587.9219 L471.6888,590.6406 Z " fill="#000000"/><text fill="#000000" font-family="sans-serif" font-size="14" lengthAdjust="spacing" textLength="48.8223" x="482.72" y="589.8467">Parada</text><line style="stroke:#181818;stroke-width:0.5;" x1="454.72" x2="533.5423" y1="601" y2="601"/><line style="stroke:#181818;stroke-width:0.5;" x1="454.72" x2="533.5423" y1="609" y2="609"/></g><!--class Horario--><g id="elem_Horario"><rect codeLine="34" fill="#F1F1F1" height="48" id="Horario" rx="2.5" ry="2.5" style="stroke:#181818;stroke-width:0.5;" width="83.6387" x="616.31" y="569"/><ellipse cx="631.31" cy="585" fill="#ADD1B2" rx="11" ry="11" style="stroke:#181818;stroke-width:1;"/><path d="M634.2788,590.6406 Q633.7006,590.9375 633.06,591.0781 Q632.4194,591.2344 631.7163,591.2344 Q629.2163,591.2344 627.8881,589.5938 Q626.5756,587.9375 626.5756,584.8125 Q626.5756,581.6875 627.8881,580.0313 Q629.2163,578.375 631.7163,578.375 Q632.4194,578.375 633.06,578.5313 Q633.7163,578.6875 634.2788,578.9844 L634.2788,581.7031 Q633.6538,581.125 633.06,580.8594 Q632.4663,580.5781 631.8413,580.5781 Q630.4975,580.5781 629.81,581.6563 Q629.1225,582.7188 629.1225,584.8125 Q629.1225,586.9063 629.81,587.9844 Q630.4975,589.0469 631.8413,589.0469 Q632.4663,589.0469 633.06,588.7813 Q633.6538,588.5 634.2788,587.9219 L634.2788,590.6406 Z " fill="#000000"/><text fill="#000000" font-family="sans-serif" font-size="14" lengthAdjust="spacing" textLength="51.6387" x="645.31" y="589.8467">Horario</text><line style="stroke:#181818;stroke-width:0.5;" x1="617.31" x2="698.9487" y1="601" y2="601"/><line style="stroke:#181818;stroke-width:0.5;" x1="617.31" x2="698.9487" y1="609" y2="609"/></g><!--class PlanificacionDeRuta--><g id="elem_PlanificacionDeRuta"><rect codeLine="37" fill="#F1F1F1" height="48" id="PlanificacionDeRuta" rx="2.5" ry="2.5" style="stroke:#181818;stroke-width:0.5;" width="171.8564" x="482.2" y="210"/><ellipse cx="497.2" cy="226" fill="#ADD1B2" rx="11" ry="11" style="stroke:#181818;stroke-width:1;"/><path d="M500.1688,231.6406 Q499.5906,231.9375 498.95,232.0781 Q498.3094,232.2344 497.6063,232.2344 Q495.1063,232.2344 493.7781,230.5938 Q492.4656,228.9375 492.4656,225.8125 Q492.4656,222.6875 493.7781,221.0313 Q495.1063,219.375 497.6063,219.375 Q498.3094,219.375 498.95,219.5313 Q499.6063,219.6875 500.1688,219.9844 L500.1688,222.7031 Q499.5438,222.125 498.95,221.8594 Q498.3563,221.5781 497.7313,221.5781 Q496.3875,221.5781 495.7,222.6563 Q495.0125,223.7188 495.0125,225.8125 Q495.0125,227.9063 495.7,228.9844 Q496.3875,230.0469 497.7313,230.0469 Q498.3563,230.0469 498.95,229.7813 Q499.5438,229.5 500.1688,228.9219 L500.1688,231.6406 Z " fill="#000000"/><text fill="#000000" font-family="sans-serif" font-size="14" lengthAdjust="spacing" textLength="139.8564" x="511.2" y="230.8467">PlanificacionDeRuta</text><line style="stroke:#181818;stroke-width:0.5;" x1="483.2" x2="653.0564" y1="242" y2="242"/><line style="stroke:#181818;stroke-width:0.5;" x1="483.2" x2="653.0564" y1="250" y2="250"/></g><!--class GestionDeIncidencias--><g id="elem_GestionDeIncidencias"><rect codeLine="40" fill="#F1F1F1" height="48" id="GestionDeIncidencias" rx="2.5" ry="2.5" style="stroke:#181818;stroke-width:0.5;" width="183.3887" x="568.43" y="132"/><ellipse cx="583.43" cy="148" fill="#ADD1B2" rx="11" ry="11" style="stroke:#181818;stroke-width:1;"/><path d="M586.3988,153.6406 Q585.8206,153.9375 585.18,154.0781 Q584.5394,154.2344 583.8363,154.2344 Q581.3363,154.2344 580.0081,152.5938 Q578.6956,150.9375 578.6956,147.8125 Q578.6956,144.6875 580.0081,143.0313 Q581.3363,141.375 583.8363,141.375 Q584.5394,141.375 585.18,141.5313 Q585.8363,141.6875 586.3988,141.9844 L586.3988,144.7031 Q585.7738,144.125 585.18,143.8594 Q584.5863,143.5781 583.9613,143.5781 Q582.6175,143.5781 581.93,144.6563 Q581.2425,145.7188 581.2425,147.8125 Q581.2425,149.9063 581.93,150.9844 Q582.6175,152.0469 583.9613,152.0469 Q584.5863,152.0469 585.18,151.7813 Q585.7738,151.5 586.3988,150.9219 L586.3988,153.6406 Z " fill="#000000"/><text fill="#000000" font-family="sans-serif" font-size="14" lengthAdjust="spacing" textLength="151.3887" x="597.43" y="152.8467">GestionDeIncidencias</text><line style="stroke:#181818;stroke-width:0.5;" x1="569.43" x2="750.8187" y1="164" y2="164"/><line style="stroke:#181818;stroke-width:0.5;" x1="569.43" x2="750.8187" y1="172" y2="172"/></g><!--class Incidencia--><g id="elem_Incidencia"><rect codeLine="43" fill="#F1F1F1" height="48" id="Incidencia" rx="2.5" ry="2.5" style="stroke:#181818;stroke-width:0.5;" width="103.1279" x="665.56" y="288"/><ellipse cx="680.56" cy="304" fill="#ADD1B2" rx="11" ry="11" style="stroke:#181818;stroke-width:1;"/><path d="M683.5288,309.6406 Q682.9506,309.9375 682.31,310.0781 Q681.6694,310.2344 680.9663,310.2344 Q678.4663,310.2344 677.1381,308.5938 Q675.8256,306.9375 675.8256,303.8125 Q675.8256,300.6875 677.1381,299.0313 Q678.4663,297.375 680.9663,297.375 Q681.6694,297.375 682.31,297.5313 Q682.9663,297.6875 683.5288,297.9844 L683.5288,300.7031 Q682.9038,300.125 682.31,299.8594 Q681.7163,299.5781 681.0913,299.5781 Q679.7475,299.5781 679.06,300.6563 Q678.3725,301.7188 678.3725,303.8125 Q678.3725,305.9063 679.06,306.9844 Q679.7475,308.0469 681.0913,308.0469 Q681.7163,308.0469 682.31,307.7813 Q682.9038,307.5 683.5288,306.9219 L683.5288,309.6406 Z " fill="#000000"/><text fill="#000000" font-family="sans-serif" font-size="14" lengthAdjust="spacing" textLength="71.1279" x="694.56" y="308.8467">Incidencia</text><line style="stroke:#181818;stroke-width:0.5;" x1="666.56" x2="767.6879" y1="320" y2="320"/><line style="stroke:#181818;stroke-width:0.5;" x1="666.56" x2="767.6879" y1="328" y2="328"/></g><!--class Mantenimiento--><g id="elem_Mantenimiento"><rect codeLine="46" fill="#F1F1F1" height="48" id="Mantenimiento" rx="2.5" ry="2.5" style="stroke:#181818;stroke-width:0.5;" width="137.4648" x="648.4" y="444"/><ellipse cx="663.4" cy="460" fill="#ADD1B2" rx="11" ry="11" style="stroke:#181818;stroke-width:1;"/><path d="M666.3688,465.6406 Q665.7906,465.9375 665.15,466.0781 Q664.5094,466.2344 663.8063,466.2344 Q661.3063,466.2344 659.9781,464.5938 Q658.6656,462.9375 658.6656,459.8125 Q658.6656,456.6875 659.9781,455.0313 Q661.3063,453.375 663.8063,453.375 Q664.5094,453.375 665.15,453.5313 Q665.8063,453.6875 666.3688,453.9844 L666.3688,456.7031 Q665.7438,456.125 665.15,455.8594 Q664.5563,455.5781 663.9313,455.5781 Q662.5875,455.5781 661.9,456.6563 Q661.2125,457.7188 661.2125,459.8125 Q661.2125,461.9063 661.9,462.9844 Q662.5875,464.0469 663.9313,464.0469 Q664.5563,464.0469 665.15,463.7813 Q665.7438,463.5 666.3688,462.9219 L666.3688,465.6406 Z " fill="#000000"/><text fill="#000000" font-family="sans-serif" font-size="14" lengthAdjust="spacing" textLength="105.4648" x="677.4" y="464.8467">Mantenimiento</text><line style="stroke:#181818;stroke-width:0.5;" x1="649.4" x2="784.8648" y1="476" y2="476"/><line style="stroke:#181818;stroke-width:0.5;" x1="649.4" x2="784.8648" y1="484" y2="484"/></g><!--link SistemaDeTransportePublico to SistemaDePago--><g id="link_SistemaDeTransportePublico_SistemaDePago"><path codeLine="49" d="M247.65,44.11 C210,51.82 169.46,64.42 136.13,85 C117.46,96.53 105.2766,111.1634 95.0066,126.7134 " fill="none" id="SistemaDeTransportePublico-to-SistemaDePago" style="stroke:#181818;stroke-width:1;"/><polygon fill="#181818" points="91.7,131.72,99.9977,126.4145,94.4555,127.5478,93.3222,122.0057,91.7,131.72" style="stroke:#181818;stroke-width:1;"/><text fill="#000000" font-family="sans-serif" font-size="13" lengthAdjust="spacing" textLength="38.9619" x="137.13" y="98.0669">utiliza</text><text fill="#000000" font-family="sans-serif" font-size="13" lengthAdjust="spacing" textLength="8.271" x="231.4974" y="41.5583">1</text><text fill="#000000" font-family="sans-serif" font-size="13" lengthAdjust="spacing" textLength="8.271" x="86.0661" y="121.0567">1</text></g><!--link SistemaDeTransportePublico to Tarifa--><g id="link_SistemaDeTransportePublico_Tarifa"><path codeLine="50" d="M292.68,55.33 C249.15,74.39 202.13,106.25 202.13,155 C202.13,155 202.13,155 202.13,469 C202.13,503.81 202.13,538.16 202.13,562.88 " fill="none" id="SistemaDeTransportePublico-to-Tarifa" style="stroke:#181818;stroke-width:1;"/><polygon fill="#181818" points="202.13,568.88,206.13,559.88,202.13,563.88,198.13,559.88,202.13,568.88" style="stroke:#181818;stroke-width:1;"/><text fill="#000000" font-family="sans-serif" font-size="13" lengthAdjust="spacing" textLength="32.9443" x="203.13" y="316.5669">tiene</text><text fill="#000000" font-family="sans-serif" font-size="13" lengthAdjust="spacing" textLength="8.271" x="266.0794" y="75.1716">1</text><text fill="#000000" font-family="sans-serif" font-size="13" lengthAdjust="spacing" textLength="23.0356" x="176.1872" y="557.8613">1..*</text></g><!--link SistemaDeTransportePublico to Flota--><g id="link_SistemaDeTransportePublico_Flota"><path codeLine="51" d="M365.13,55.42 C365.13,77.31 365.13,103.8 365.13,125.66 " fill="none" id="SistemaDeTransportePublico-to-Flota" style="stroke:#181818;stroke-width:1;"/><polygon fill="#181818" points="365.13,131.66,369.13,122.66,365.13,126.66,361.13,122.66,365.13,131.66" style="stroke:#181818;stroke-width:1;"/><text fill="#000000" font-family="sans-serif" font-size="13" lengthAdjust="spacing" textLength="32.9443" x="366.13" y="98.0669">tiene</text><text fill="#000000" font-family="sans-serif" font-size="13" lengthAdjust="spacing" textLength="8.271" x="356.2373" y="74.8838">1</text><text fill="#000000" font-family="sans-serif" font-size="13" lengthAdjust="spacing" textLength="8.271" x="356.1885" y="120.9821">1</text></g><!--link SistemaDeTransportePublico to PlanificacionDeRuta--><g id="link_SistemaDeTransportePublico_PlanificacionDeRuta"><path codeLine="52" d="M388.81,55.45 C427.93,94.18 501.3161,166.8487 540.3361,205.4787 " fill="none" id="SistemaDeTransportePublico-to-PlanificacionDeRuta" style="stroke:#181818;stroke-width:1;"/><polygon fill="#181818" points="544.6,209.7,541.0183,200.5255,541.0468,206.1823,535.39,206.2107,544.6,209.7" style="stroke:#181818;stroke-width:1;"/><text fill="#000000" font-family="sans-serif" font-size="13" lengthAdjust="spacing" textLength="46.541" x="434.13" y="98.0669">incluye</text><text fill="#000000" font-family="sans-serif" font-size="13" lengthAdjust="spacing" textLength="8.271" x="385.3933" y="74.9207">1</text><text fill="#000000" font-family="sans-serif" font-size="13" lengthAdjust="spacing" textLength="23.0356" x="513.0662" y="199.0318">1..*</text></g><!--link SistemaDeTransportePublico to GestionDeIncidencias--><g id="link_SistemaDeTransportePublico_GestionDeIncidencias"><path codeLine="53" d="M466.86,55.48 C494.45,63.36 523.93,73.21 550.13,85 C578.2,97.63 602.5851,113.1442 623.8751,128.1442 " fill="none" id="SistemaDeTransportePublico-to-GestionDeIncidencias" style="stroke:#181818;stroke-width:1;"/><polygon fill="#181818" points="628.78,131.6,623.7265,123.1465,624.6926,128.7202,619.1189,129.6863,628.78,131.6" style="stroke:#181818;stroke-width:1;"/><text fill="#000000" font-family="sans-serif" font-size="13" lengthAdjust="spacing" textLength="55.8911" x="583.13" y="98.0669">gestiona</text><text fill="#000000" font-family="sans-serif" font-size="13" lengthAdjust="spacing" textLength="8.271" x="481.4924" y="74.9576">1</text><text fill="#000000" font-family="sans-serif" font-size="13" lengthAdjust="spacing" textLength="8.271" x="612.1978" y="120.9075">1</text></g><!--link SistemaDePago to TipoDeAbono--><g id="link_SistemaDePago_TipoDeAbono"><path codeLine="55" d="M80.32,180.09 C84.52,224.45 93.1243,315.1267 97.3443,359.6867 " fill="none" id="SistemaDePago-to-TipoDeAbono" style="stroke:#181818;stroke-width:1;"/><polygon fill="#181818" points="97.91,365.66,101.0436,356.323,97.4386,360.6823,93.0793,357.0772,97.91,365.66" style="stroke:#181818;stroke-width:1;"/><text fill="#000000" font-family="sans-serif" font-size="13" lengthAdjust="spacing" textLength="8.271" x="71.9122" y="199.8731">1</text><text fill="#000000" font-family="sans-serif" font-size="13" lengthAdjust="spacing" textLength="23.0356" x="71.5707" y="354.9821">0..*</text></g><!--link TipoDeAbono to MetodoDePago--><g id="link_TipoDeAbono_MetodoDePago"><path codeLine="56" d="M102.86,414.45 C109.87,474.59 127.7458,627.8903 134.7258,687.8103 " fill="none" id="TipoDeAbono-to-MetodoDePago" style="stroke:#181818;stroke-width:1;"/><polygon fill="#181818" points="135.42,693.77,138.3518,684.3676,134.8415,688.8036,130.4055,685.2933,135.42,693.77" style="stroke:#181818;stroke-width:1;"/><text fill="#000000" font-family="sans-serif" font-size="13" lengthAdjust="spacing" textLength="38.9619" x="118.13" y="535.0669">utiliza</text><text fill="#000000" font-family="sans-serif" font-size="13" lengthAdjust="spacing" textLength="8.271" x="94.5982" y="433.9207">1</text><text fill="#000000" font-family="sans-serif" font-size="13" lengthAdjust="spacing" textLength="8.271" x="125.8167" y="683.1189">1</text></g><!--link Flota to Conductor--><g id="link_Flota_Conductor"><path codeLine="58" d="M344.5,180.49 C338.07,189.18 331.72,199.49 328.13,210 C319.38,235.58 318.9608,260.9526 320.3208,281.8726 " fill="none" id="Flota-to-Conductor" style="stroke:#181818;stroke-width:1;"/><polygon fill="#181818" points="320.71,287.86,324.1177,278.6195,320.3856,282.8705,316.1346,279.1384,320.71,287.86" style="stroke:#181818;stroke-width:1;"/><text fill="#000000" font-family="sans-serif" font-size="13" lengthAdjust="spacing" textLength="42.8086" x="329.13" y="238.5669">asigna</text><text fill="#000000" font-family="sans-serif" font-size="13" lengthAdjust="spacing" textLength="8.271" x="330.8361" y="199.9699">1</text><text fill="#000000" font-family="sans-serif" font-size="13" lengthAdjust="spacing" textLength="23.0356" x="294.1474" y="276.8362">1..*</text></g><!--link Flota to Vehiculo--><g id="link_Flota_Vehiculo"><path codeLine="59" d="M372.16,180.19 C379.2,201.42 391.24,233.22 407.13,258 C413.89,268.55 418.6973,274.6093 427.0973,283.3693 " fill="none" id="Flota-to-Vehiculo" style="stroke:#181818;stroke-width:1;"/><polygon fill="#181818" points="431.25,287.7,427.908,278.4355,427.7894,284.0911,422.1338,283.9724,431.25,287.7" style="stroke:#181818;stroke-width:1;"/><text fill="#000000" font-family="sans-serif" font-size="13" lengthAdjust="spacing" textLength="56.2847" x="408.13" y="238.5669">contiene</text><text fill="#000000" font-family="sans-serif" font-size="13" lengthAdjust="spacing" textLength="8.271" x="364.9321" y="199.9975">1</text><text fill="#000000" font-family="sans-serif" font-size="13" lengthAdjust="spacing" textLength="23.0356" x="399.3869" y="277.0318">1..*</text></g><!--link Vehiculo to Pasajero--><g id="link_Vehiculo_Pasajero"><path codeLine="61" d="M433.05,336.26 C424.55,345.26 415.07,355.82 407.13,366 C387.29,391.43 370.5328,417.6846 357.8628,438.6546 " fill="none" id="Vehiculo-to-Pasajero" style="stroke:#181818;stroke-width:1;"/><polygon fill="#181818" points="354.76,443.79,362.8378,438.1554,357.3457,439.5105,355.9906,434.0183,354.76,443.79" style="stroke:#181818;stroke-width:1;"/><text fill="#000000" font-family="sans-serif" font-size="13" lengthAdjust="spacing" textLength="68.0342" x="408.13" y="394.5669">transporta</text><text fill="#000000" font-family="sans-serif" font-size="13" lengthAdjust="spacing" textLength="8.271" x="418.4825" y="356.0846">1</text><text fill="#000000" font-family="sans-serif" font-size="13" lengthAdjust="spacing" textLength="23.0356" x="332.3105" y="432.7482">0..*</text></g><!--link Vehiculo to Ruta--><g id="link_Vehiculo_Ruta"><path codeLine="62" d="M468.58,336.39 C484.04,365.42 507.4196,409.3342 522.8696,438.3442 " fill="none" id="Vehiculo-to-Ruta" style="stroke:#181818;stroke-width:1;"/><polygon fill="#181818" points="525.69,443.64,524.9899,433.8161,523.3397,439.2268,517.9289,437.5766,525.69,443.64" style="stroke:#181818;stroke-width:1;"/><text fill="#000000" font-family="sans-serif" font-size="13" lengthAdjust="spacing" textLength="34.874" x="511.13" y="394.5669">sigue</text><text fill="#000000" font-family="sans-serif" font-size="13" lengthAdjust="spacing" textLength="8.271" x="462.6729" y="356.2463">1</text><text fill="#000000" font-family="sans-serif" font-size="13" lengthAdjust="spacing" textLength="8.271" x="513.7171" y="432.9572">1</text></g><!--link Ruta to Parada--><g id="link_Ruta_Parada"><path codeLine="64" d="M505.51,478.63 C484.79,486.63 459.61,500.28 447.13,522 C437.94,537.99 444.8691,551.0267 458.6591,564.3767 " fill="none" id="Ruta-to-Parada" style="stroke:#181818;stroke-width:1;"/><polygon fill="#181818" points="462.97,568.55,459.2859,559.4161,459.3776,565.0722,453.7215,565.1639,462.97,568.55" style="stroke:#181818;stroke-width:1;"/><text fill="#000000" font-family="sans-serif" font-size="13" lengthAdjust="spacing" textLength="46.541" x="448.13" y="535.0669">incluye</text><text fill="#000000" font-family="sans-serif" font-size="13" lengthAdjust="spacing" textLength="8.271" x="489.5302" y="476.3961">1</text><text fill="#000000" font-family="sans-serif" font-size="13" lengthAdjust="spacing" textLength="23.0356" x="429.5757" y="557.8453">1..*</text></g><!--link Parada to Ruta--><g id="link_Parada_Ruta"><path codeLine="75" d="M502.48,568.66 C510.3,546.8 519.8992,519.9595 527.7292,498.0695 " fill="none" id="Parada-to-Ruta" style="stroke:#181818;stroke-width:1;"/><polygon fill="#181818" points="529.75,492.42,522.9525,499.547,528.066,497.1279,530.4851,502.2414,529.75,492.42" style="stroke:#181818;stroke-width:1;"/><text fill="#000000" font-family="sans-serif" font-size="13" lengthAdjust="spacing" textLength="78.1714" x="520.13" y="535.0669">pertenece a</text><text fill="#000000" font-family="sans-serif" font-size="13" lengthAdjust="spacing" textLength="23.0356" x="478.7163" y="557.9821">1..*</text><text fill="#000000" font-family="sans-serif" font-size="13" lengthAdjust="spacing" textLength="8.271" x="518.9197" y="511.8838">1</text></g><!--link Ruta to Horario--><g id="link_Ruta_Horario"><path codeLine="65" d="M570.62,490.97 C582.72,499.9 596.16,510.75 607.13,522 C620.98,536.21 630.7907,549.3818 640.2607,563.6418 " fill="none" id="Ruta-to-Horario" style="stroke:#181818;stroke-width:1;"/><polygon fill="#181818" points="643.58,568.64,641.9332,558.9298,640.8139,564.4748,635.2689,563.3555,643.58,568.64" style="stroke:#181818;stroke-width:1;"/><text fill="#000000" font-family="sans-serif" font-size="13" lengthAdjust="spacing" textLength="32.9443" x="623.13" y="535.0669">tiene</text><text fill="#000000" font-family="sans-serif" font-size="13" lengthAdjust="spacing" textLength="8.271" x="578.633" y="491.4355">1</text><text fill="#000000" font-family="sans-serif" font-size="13" lengthAdjust="spacing" textLength="23.0356" x="614.2348" y="557.9572">1..*</text></g><!--link PlanificacionDeRuta to Ruta--><g id="link_PlanificacionDeRuta_Ruta"><path codeLine="67" d="M566.7,258.29 C564.39,292.56 559.17,358.51 550.13,414 C548.54,423.78 547.6028,428.6092 545.4428,437.7992 " fill="none" id="PlanificacionDeRuta-to-Ruta" style="stroke:#181818;stroke-width:1;"/><polygon fill="#181818" points="544.07,443.64,550.0231,435.794,545.214,438.7726,542.2353,433.9635,544.07,443.64" style="stroke:#181818;stroke-width:1;"/><text fill="#000000" font-family="sans-serif" font-size="13" lengthAdjust="spacing" textLength="56.1577" x="566.13" y="316.5669">organiza</text><text fill="#000000" font-family="sans-serif" font-size="13" lengthAdjust="spacing" textLength="8.271" x="557.4099" y="278.1219">1</text><text fill="#000000" font-family="sans-serif" font-size="13" lengthAdjust="spacing" textLength="23.0356" x="548.3267" y="432.9572">1..*</text></g><!--link GestionDeIncidencias to Incidencia--><g id="link_GestionDeIncidencias_Incidencia"><path codeLine="69" d="M668.79,180.39 C679.53,209.42 695.6569,253.0032 706.3969,282.0132 " fill="none" id="GestionDeIncidencias-to-Incidencia" style="stroke:#181818;stroke-width:1;"/><polygon fill="#181818" points="708.48,287.64,709.1065,277.8111,706.7441,282.951,701.6041,280.5886,708.48,287.64" style="stroke:#181818;stroke-width:1;"/><text fill="#000000" font-family="sans-serif" font-size="13" lengthAdjust="spacing" textLength="50.3877" x="698.13" y="238.5669">registra</text><text fill="#000000" font-family="sans-serif" font-size="13" lengthAdjust="spacing" textLength="8.271" x="661.9603" y="200.2463">1</text><text fill="#000000" font-family="sans-serif" font-size="13" lengthAdjust="spacing" textLength="23.0356" x="680.5743" y="276.9572">0..*</text></g><!--link Incidencia to Mantenimiento--><g id="link_Incidencia_Mantenimiento"><path codeLine="70" d="M717.13,336.39 C717.13,365.42 717.13,408.63 717.13,437.64 " fill="none" id="Incidencia-to-Mantenimiento" style="stroke:#181818;stroke-width:1;"/><polygon fill="#181818" points="717.13,443.64,721.13,434.64,717.13,438.64,713.13,434.64,717.13,443.64" style="stroke:#181818;stroke-width:1;"/><text fill="#000000" font-family="sans-serif" font-size="13" lengthAdjust="spacing" textLength="97.0049" x="718.13" y="394.5669">puede requerir</text><text fill="#000000" font-family="sans-serif" font-size="13" lengthAdjust="spacing" textLength="23.0356" x="691.3327" y="356.2463">0..*</text><text fill="#000000" font-family="sans-serif" font-size="13" lengthAdjust="spacing" textLength="24.8066" x="690.3027" y="432.9572">0..1</text></g><!--link Tarifa to MetodoDePago--><g id="link_Tarifa_MetodoDePago"><path codeLine="72" d="M189.94,617.42 C178.55,639.31 164.4087,666.477 153.0387,688.337 " fill="none" id="Tarifa-to-MetodoDePago" style="stroke:#181818;stroke-width:1;"/><polygon fill="#181818" points="150.27,693.66,157.9717,687.5212,152.5772,689.2241,150.8743,683.8297,150.27,693.66" style="stroke:#181818;stroke-width:1;"/><text fill="#000000" font-family="sans-serif" font-size="13" lengthAdjust="spacing" textLength="87.9087" x="175.13" y="660.0669">se realiza por</text><text fill="#000000" font-family="sans-serif" font-size="13" lengthAdjust="spacing" textLength="8.271" x="178.2269" y="636.8838">1</text><text fill="#000000" font-family="sans-serif" font-size="13" lengthAdjust="spacing" textLength="8.271" x="144.2864" y="682.9821">1</text></g><!--link Pasajero to Tarifa--><g id="link_Pasajero_Tarifa"><path codeLine="73" d="M314.66,492.42 C289.92,514.31 257.6931,542.8235 232.9931,564.6835 " fill="none" id="Pasajero-to-Tarifa" style="stroke:#181818;stroke-width:1;"/><polygon fill="#181818" points="228.5,568.66,237.8906,565.6907,232.2442,565.3463,232.5886,559.6999,228.5,568.66" style="stroke:#181818;stroke-width:1;"/><text fill="#000000" font-family="sans-serif" font-size="13" lengthAdjust="spacing" textLength="32.4365" x="281.13" y="535.0669">paga</text><text fill="#000000" font-family="sans-serif" font-size="13" lengthAdjust="spacing" textLength="8.271" x="299.6453" y="511.8838">1</text><text fill="#000000" font-family="sans-serif" font-size="13" lengthAdjust="spacing" textLength="8.271" x="225.9852" y="557.9821">1</text></g><!--SRC=[bPDBImCn4CVl-HIXHw55hpa8Ol5n41OjtgVPwJfbcwnv75JyxcRVoH9AlNJfF_F8_EOVMOEr_8simnDiSMT0sKORXuNVroGr_s6_ZCaqge0gETXHexTujzSgaL_GwL9dmi7G0MBbeTOk4UwrAhrqsiJYEtwGz7LIgm0BHpI9zkhJOWKOA1FbIPjmXxHG3OeE946ILbjSrdX4wxg3PoMfnF03DZwVvOG0A8UAJeJA3TtEe5xThFXwVTjzKzQ2UqSrVSDbwPlDrMgaBBWBtV7Illqc_fNKTSlX4voKhFtNnSspa0MlUXaYU1sLAVMw7tXs8OiT6NT8B3bJPVtOYvbc4meEbgfmWspSv4l1fLOzEJQ9YrjEXWsCHnYGYGxV0MBex4F1xj-IUk_i6NGkQ3Jxk5IMszKYPsYjJHL2Mq3PrIn6Yzw0u0Qhi2m3B5A7k36btKVoG0HlF9OOSZyz6ZAC3IO-iqBRXaExHHvGiWbld38zXGQgCCj0RHXrGRl1O4w54Zdy0G00]--></g></svg>