<svg xmlns="http://www.w3.org/2000/svg" xmlns:xlink="http://www.w3.org/1999/xlink" contentStyleType="text/css" height="561px" preserveAspectRatio="none" style="width:766px;height:561px;background:#FFFFFF;" version="1.1" viewBox="0 0 766 561" width="766px" zoomAndPan="magnify"><defs/><g><g id="elem_Vehiculo1"><rect fill="#F1F1F1" height="60.8906" style="stroke:#181818;stroke-width:0.5;" width="169.3291" x="230.8" y="128.6"/><text fill="#000000" font-family="sans-serif" font-size="14" lengthAdjust="spacing" textLength="68.8857" x="281.0217" y="143.5951">Vehiculo1</text><line style="stroke:#181818;stroke-width:0.5;" x1="231.8" x2="399.1291" y1="148.8969" y2="148.8969"/><text fill="#000000" font-family="sans-serif" font-size="14" lengthAdjust="spacing" textLength="120.9619" x="236.8" y="165.892">Tipo = "Autob&#250;s"</text><text fill="#000000" font-family="sans-serif" font-size="14" lengthAdjust="spacing" textLength="157.3291" x="236.8" y="182.1889">Estado = "En servicio"</text></g><g id="elem_Conductor1"><rect fill="#F1F1F1" height="44.5938" style="stroke:#181818;stroke-width:0.5;" width="186.9248" x="7" y="266.49"/><text fill="#000000" font-family="sans-serif" font-size="14" lengthAdjust="spacing" textLength="81.3887" x="59.7681" y="281.4851">Conductor1</text><line style="stroke:#181818;stroke-width:0.5;" x1="8" x2="192.9248" y1="286.7869" y2="286.7869"/><text fill="#000000" font-family="sans-serif" font-size="14" lengthAdjust="spacing" textLength="174.9248" x="13" y="303.782">nombre = "Carlos P&#233;rez"</text></g><g id="elem_Pasajero1"><rect fill="#F1F1F1" height="44.5938" style="stroke:#181818;stroke-width:0.5;" width="172.5352" x="229.19" y="266.49"/><text fill="#000000" font-family="sans-serif" font-size="14" lengthAdjust="spacing" textLength="68.626" x="281.1446" y="281.4851">Pasajero1</text><line style="stroke:#181818;stroke-width:0.5;" x1="230.19" x2="400.7252" y1="286.7869" y2="286.7869"/><text fill="#000000" font-family="sans-serif" font-size="14" lengthAdjust="spacing" textLength="160.5352" x="235.19" y="303.782">nombre = "Ana L&#243;pez"</text></g><g id="elem_Ruta1"><rect fill="#F1F1F1" height="44.5938" style="stroke:#181818;stroke-width:0.5;" width="145.8682" x="437.53" y="266.49"/><text fill="#000000" font-family="sans-serif" font-size="14" lengthAdjust="spacing" textLength="41.5762" x="489.676" y="281.4851">Ruta1</text><line style="stroke:#181818;stroke-width:0.5;" x1="438.53" x2="582.3982" y1="286.7869" y2="286.7869"/><text fill="#000000" font-family="sans-serif" font-size="14" lengthAdjust="spacing" textLength="133.8682" x="443.53" y="303.782">nombre = "Ruta 5"</text></g><g id="elem_Parada1"><rect fill="#F1F1F1" height="44.5938" style="stroke:#181818;stroke-width:0.5;" width="192.1064" x="414.41" y="388.08"/><text fill="#000000" font-family="sans-serif" font-size="14" lengthAdjust="spacing" textLength="57.7295" x="481.5985" y="403.0751">Parada1</text><line style="stroke:#181818;stroke-width:0.5;" x1="415.41" x2="605.5164" y1="408.3769" y2="408.3769"/><text fill="#000000" font-family="sans-serif" font-size="14" lengthAdjust="spacing" textLength="180.1064" x="420.41" y="425.372">nombre = "Plaza Central"</text></g><g id="elem_Horario1"><rect fill="#F1F1F1" height="44.5938" style="stroke:#181818;stroke-width:0.5;" width="117.6289" x="641.65" y="388.08"/><text fill="#000000" font-family="sans-serif" font-size="14" lengthAdjust="spacing" textLength="60.5459" x="670.1915" y="403.0751">Horario1</text><line style="stroke:#181818;stroke-width:0.5;" x1="642.65" x2="758.2789" y1="408.3769" y2="408.3769"/><text fill="#000000" font-family="sans-serif" font-size="14" lengthAdjust="spacing" textLength="105.6289" x="647.65" y="425.372">hora = "08:00"</text></g><g id="elem_Tarifa1"><rect fill="#F1F1F1" height="44.5938" style="stroke:#181818;stroke-width:0.5;" width="128.9971" x="249.96" y="388.08"/><text fill="#000000" font-family="sans-serif" font-size="14" lengthAdjust="spacing" textLength="49.1914" x="289.8628" y="403.0751">Tarifa1</text><line style="stroke:#181818;stroke-width:0.5;" x1="250.96" x2="377.9571" y1="408.3769" y2="408.3769"/><text fill="#000000" font-family="sans-serif" font-size="14" lengthAdjust="spacing" textLength="116.9971" x="255.96" y="425.372">precio = "1.50&#8364;"</text></g><g id="elem_MetodoDePago1"><rect fill="#F1F1F1" height="44.5938" style="stroke:#181818;stroke-width:0.5;" width="128.9736" x="249.98" y="509.68"/><text fill="#000000" font-family="sans-serif" font-size="14" lengthAdjust="spacing" textLength="114.9736" x="256.98" y="524.6751">MetodoDePago1</text><line style="stroke:#181818;stroke-width:0.5;" x1="250.98" x2="377.9536" y1="529.9769" y2="529.9769"/><text fill="#000000" font-family="sans-serif" font-size="14" lengthAdjust="spacing" textLength="109.7988" x="255.98" y="546.972">tipo = "Tarjeta"</text></g><g id="elem_Incidencia1"><rect fill="#F1F1F1" height="44.5938" style="stroke:#181818;stroke-width:0.5;" width="256.5967" x="187.16" y="7"/><text fill="#000000" font-family="sans-serif" font-size="14" lengthAdjust="spacing" textLength="80.0352" x="275.4408" y="21.9951">Incidencia1</text><line style="stroke:#181818;stroke-width:0.5;" x1="188.16" x2="442.7567" y1="27.2969" y2="27.2969"/><text fill="#000000" font-family="sans-serif" font-size="14" lengthAdjust="spacing" textLength="244.5967" x="193.16" y="44.292">descripcion = "Retraso por tr&#225;fico"</text></g><!--link Vehiculo1 to Conductor1--><g id="link_Vehiculo1_Conductor1"><path codeLine="38" d="M249.37,189.97 C231.24,198.86 211.8,209.04 194.46,219.49 C170.97,233.65 150.6629,248.3781 132.3229,262.5081 " fill="none" id="Vehiculo1-to-Conductor1" style="stroke:#181818;stroke-width:1;"/><polygon fill="#181818" points="127.57,266.17,137.1407,263.8458,131.5308,263.1184,132.2582,257.5085,127.57,266.17" style="stroke:#181818;stroke-width:1;"/><text fill="#000000" font-family="sans-serif" font-size="13" lengthAdjust="spacing" textLength="111.3823" x="195.46" y="232.5569">es conducido por</text></g><!--link Vehiculo1 to Pasajero1--><g id="link_Vehiculo1_Pasajero1"><path codeLine="39" d="M315.46,189.67 C315.46,213.11 315.46,239.28 315.46,260.3 " fill="none" id="Vehiculo1-to-Pasajero1" style="stroke:#181818;stroke-width:1;"/><polygon fill="#181818" points="315.46,266.3,319.46,257.3,315.46,261.3,311.46,257.3,315.46,266.3" style="stroke:#181818;stroke-width:1;"/><text fill="#000000" font-family="sans-serif" font-size="13" lengthAdjust="spacing" textLength="68.0342" x="316.46" y="232.5569">transporta</text></g><!--link Vehiculo1 to Ruta1--><g id="link_Vehiculo1_Ruta1"><path codeLine="40" d="M360.69,189.67 C396.36,213.04 440.2509,241.7923 472.3409,262.8123 " fill="none" id="Vehiculo1-to-Ruta1" style="stroke:#181818;stroke-width:1;"/><polygon fill="#181818" points="477.36,266.1,472.0231,257.8224,473.1774,263.3603,467.6396,264.5146,477.36,266.1" style="stroke:#181818;stroke-width:1;"/><text fill="#000000" font-family="sans-serif" font-size="13" lengthAdjust="spacing" textLength="34.874" x="431.46" y="232.5569">sigue</text></g><!--link Ruta1 to Parada1--><g id="link_Ruta1_Parada1"><path codeLine="42" d="M510.46,311.44 C510.46,333.12 510.46,360.27 510.46,381.88 " fill="none" id="Ruta1-to-Parada1" style="stroke:#181818;stroke-width:1;"/><polygon fill="#181818" points="510.46,387.88,514.46,378.88,510.46,382.88,506.46,378.88,510.46,387.88" style="stroke:#181818;stroke-width:1;"/><text fill="#000000" font-family="sans-serif" font-size="13" lengthAdjust="spacing" textLength="56.2847" x="511.46" y="354.1469">contiene</text></g><!--link Ruta1 to Horario1--><g id="link_Ruta1_Horario1"><path codeLine="43" d="M544.87,311.44 C579.2,333.05 626.5621,362.8639 660.9121,384.4839 " fill="none" id="Ruta1-to-Horario1" style="stroke:#181818;stroke-width:1;"/><polygon fill="#181818" points="665.99,387.68,660.5038,379.5006,661.7584,385.0166,656.2424,386.2712,665.99,387.68" style="stroke:#181818;stroke-width:1;"/><text fill="#000000" font-family="sans-serif" font-size="13" lengthAdjust="spacing" textLength="59.0142" x="618.46" y="354.1469">asignado</text></g><!--link Pasajero1 to Tarifa1--><g id="link_Pasajero1_Tarifa1"><path codeLine="45" d="M315.28,311.44 C315.1,333.12 314.87,360.2702 314.69,381.8802 " fill="none" id="Pasajero1-to-Tarifa1" style="stroke:#181818;stroke-width:1;"/><polygon fill="#181818" points="314.64,387.88,318.7148,378.9136,314.6816,382.8802,310.7151,378.847,314.64,387.88" style="stroke:#181818;stroke-width:1;"/><text fill="#000000" font-family="sans-serif" font-size="13" lengthAdjust="spacing" textLength="32.4365" x="316.46" y="354.1469">paga</text></g><!--link Tarifa1 to MetodoDePago1--><g id="link_Tarifa1_MetodoDePago1"><path codeLine="46" d="M314.46,433.04 C314.46,454.71 314.46,481.86 314.46,503.48 " fill="none" id="Tarifa1-to-MetodoDePago1" style="stroke:#181818;stroke-width:1;"/><polygon fill="#181818" points="314.46,509.48,318.46,500.48,314.46,504.48,310.46,500.48,314.46,509.48" style="stroke:#181818;stroke-width:1;"/><text fill="#000000" font-family="sans-serif" font-size="13" lengthAdjust="spacing" textLength="128.1846" x="315.46" y="475.7469">se realiza mediante</text></g><!--link Incidencia1 to Vehiculo1--><g id="link_Incidencia1_Vehiculo1"><path codeLine="48" d="M315.46,51.97 C315.46,72.9 315.46,98.77 315.46,122.11 " fill="none" id="Incidencia1-to-Vehiculo1" style="stroke:#181818;stroke-width:1;"/><polygon fill="#181818" points="315.46,128.11,319.46,119.11,315.46,123.11,311.46,119.11,315.46,128.11" style="stroke:#181818;stroke-width:1;"/><text fill="#000000" font-family="sans-serif" font-size="13" lengthAdjust="spacing" textLength="40.752" x="316.46" y="94.6669">afecta</text></g><!--SRC=[PPAnQiCm48PtFSMHFSKP0iNGGaW3BRHWIkX-aIw9WYCPIUwGqgLlqh7GhLjNlqcVfAVOgHLtCTpf-_yx_R9TxKW6UAAjbdLf9_0Y09Qwid05eraTxAhvzYFkBNn0TUmk37XoprfgEnAlGjZMOcwDgcMmhlKmThzo5Favkj9wA9eFHuTKKQ377Jax5CmCmdtpLPtJZtN08HbxC3ttTAZ-SKM91uGvcU2mJF5Rwz3fReCj5v7EBlCiIwabC-lEj7B45u_Ov6AQ_Rnzfk031Qli3HMuwJn35oLRx2XW2jyPgHNnftDMvANJ5RkRuzs8b_KMAkiWkEPzhMMRT_zMu_5r6diEv44UQwsEmW7R1vwp9HhFIC01rEQSWzURceHeorRTHfl76K6JeUJmByWSa9M6_nKX-daHEQMOGuKR5ASo7ftdnhC9766f-T7sf3IQm9kaUKLHlpRFN7EY-0i0]--></g></svg>